<?xml version="1.0" encoding="UTF-8" standalone="no"?>
<svg
   xmlns:dc="http://purl.org/dc/elements/1.1/"
   xmlns:cc="http://creativecommons.org/ns#"
   xmlns:rdf="http://www.w3.org/1999/02/22-rdf-syntax-ns#"
   xmlns:svg="http://www.w3.org/2000/svg"
   xmlns="http://www.w3.org/2000/svg"
   xmlns:sodipodi="http://sodipodi.sourceforge.net/DTD/sodipodi-0.dtd"
   xmlns:inkscape="http://www.inkscape.org/namespaces/inkscape"
   height="320pt"
   viewBox="0 0 512 320"
   width="512pt"
   version="1.1"
   id="svg17"
   sodipodi:docname="logo1.svg"
   inkscape:version="0.92.4 (33fec40, 2019-01-16)">
  <metadata
     id="metadata23">
    <rdf:RDF>
      <cc:Work
         rdf:about="">
        <dc:format>image/svg+xml</dc:format>
        <dc:type
           rdf:resource="http://purl.org/dc/dcmitype/StillImage" />
        <dc:title></dc:title>
      </cc:Work>
    </rdf:RDF>
  </metadata>
  <defs
     id="defs21" />
  <sodipodi:namedview
     pagecolor="#ffffff"
     bordercolor="#666666"
     borderopacity="1"
     objecttolerance="10"
     gridtolerance="10"
     guidetolerance="10"
     inkscape:pageopacity="0"
     inkscape:pageshadow="2"
     inkscape:window-width="3742"
     inkscape:window-height="2031"
     id="namedview19"
     showgrid="false"
     inkscape:zoom="0.9777961"
     inkscape:cx="572.32538"
     inkscape:cy="325.52787"
     inkscape:window-x="98"
     inkscape:window-y="55"
     inkscape:window-maximized="1"
     inkscape:current-layer="svg17" />
  <linearGradient
     id="a"
     gradientUnits="userSpaceOnUse"
     x1="122.72498"
     x2="658.8797"
     y1="251.20943"
     y2="774.32465"
     gradientTransform="translate(0,-192)">
    <stop
       offset="0"
       stop-color="#00f2fe"
       id="stop2"
       style="stop-color:#fe3200;stop-opacity:1" />
    <stop
       offset=".0208"
       stop-color="#03effe"
       id="stop4"
       style="stop-color:#fe4d03;stop-opacity:1" />
    <stop
       offset=".2931"
       stop-color="#24d2fe"
       id="stop6"
       style="stop-color:#ff7623;stop-opacity:1" />
    <stop
       offset=".5538"
       stop-color="#3cbdfe"
       id="stop8"
       style="stop-color:#fec63c;stop-opacity:1" />
    <stop
       offset=".7956"
       stop-color="#4ab0fe"
       id="stop10"
       style="stop-color:#febc4a;stop-opacity:1" />
    <stop
       offset="1"
       stop-color="#4facfe"
       id="stop12"
       style="stop-color:#fec44f;stop-opacity:1" />
  </linearGradient>
  <path
     d="m 492,140 h -4.91406 L 459.51953,43.51562 C 452.19922,17.89453 428.47656,0 401.82812,0 H 110.17187 C 83.523438,0 59.800781,17.89453 52.480469,43.51562 L 24.914062,140 H 20 c -11.046875,0 -20,8.95312 -20,20 0,11.04687 8.953125,20 20,20 h 4.914062 l 27.566407,96.48437 C 59.800781,302.10547 83.523438,320 110.17187,320 h 291.65625 c 26.64844,0 50.3711,-17.89453 57.69141,-43.51563 l 24.56968,-93.67006 c 5.00233,-28.22323 -33.21094,-26.06407 -39.61148,-6.00257 l -23.41914,88.68045 C 418.61719,274.03516 410.71094,280 401.82812,280 H 110.17187 c -8.88281,0 -16.789058,-5.96484 -19.230464,-14.50781 L 66.515625,180 H 185.58594 l 15.02734,21.46875 C 204.35547,206.81641 210.47266,210 217,210 h 79 c 6.52734,0 12.64453,-3.18359 16.38672,-8.53125 L 327.41406,180 H 492 c 11.04687,0 20,-8.95313 20,-20 0,-11.04688 -8.95313,-20 -20,-20 z m -175,0 c -6.52734,0 -12.64453,3.18359 -16.38672,8.53125 L 285.58594,170 H 227.41406 L 212.38672,148.53125 C 208.64453,143.18359 202.52734,140 196,140 H 66.515625 L 90.941406,54.50391 C 93.382812,45.96484 101.28906,40 110.17188,40 h 291.65624 c 8.88282,0 16.78907,5.96484 19.23047,14.50781 L 445.48437,140 Z"
     id="path15"
     inkscape:connector-curvature="0"
     style="fill:url(#a);fill-opacity:1"
     sodipodi:nodetypes="sccssccsssccssccccssccccssccssssccccsccssccs" />
</svg>
