<?xml version="1.0" encoding="UTF-8" standalone="no"?>
<svg
   xmlns:dc="http://purl.org/dc/elements/1.1/"
   xmlns:cc="http://creativecommons.org/ns#"
   xmlns:rdf="http://www.w3.org/1999/02/22-rdf-syntax-ns#"
   xmlns:svg="http://www.w3.org/2000/svg"
   xmlns="http://www.w3.org/2000/svg"
   xmlns:sodipodi="http://sodipodi.sourceforge.net/DTD/sodipodi-0.dtd"
   xmlns:inkscape="http://www.inkscape.org/namespaces/inkscape"
   height="512pt"
   viewBox="0 0 512 512"
   width="512pt"
   version="1.1"
   id="svg3933"
   sodipodi:docname="logo3.svg"
   inkscape:version="0.92.4 (33fec40, 2019-01-16)">
  <metadata
     id="metadata3939">
    <rdf:RDF>
      <cc:Work
         rdf:about="">
        <dc:format>image/svg+xml</dc:format>
        <dc:type
           rdf:resource="http://purl.org/dc/dcmitype/StillImage" />
        <dc:title></dc:title>
      </cc:Work>
    </rdf:RDF>
  </metadata>
  <defs
     id="defs3937" />
  <sodipodi:namedview
     pagecolor="#ffffff"
     bordercolor="#666666"
     borderopacity="1"
     objecttolerance="10"
     gridtolerance="10"
     guidetolerance="10"
     inkscape:pageopacity="0"
     inkscape:pageshadow="2"
     inkscape:window-width="3742"
     inkscape:window-height="2031"
     id="namedview3935"
     showgrid="false"
     inkscape:zoom="1.3007813"
     inkscape:cx="343.99233"
     inkscape:cy="386.17164"
     inkscape:window-x="98"
     inkscape:window-y="55"
     inkscape:window-maximized="1"
     inkscape:current-layer="svg3933" />
  <linearGradient
     id="a"
     gradientUnits="userSpaceOnUse"
     x1="77.549545"
     x2="463.85583"
     y1="153.36937"
     y2="507.67566">
    <stop
       offset="0"
       stop-color="#00f2fe"
       id="stop3918"
       style="stop-color:#fe0000;stop-opacity:1" />
    <stop
       offset=".0208"
       stop-color="#03effe"
       id="stop3920"
       style="stop-color:#fe3003;stop-opacity:1" />
    <stop
       offset=".2931"
       stop-color="#24d2fe"
       id="stop3922"
       style="stop-color:#fe6d24;stop-opacity:1" />
    <stop
       offset=".5538"
       stop-color="#3cbdfe"
       id="stop3924"
       style="stop-color:#fe9c3c;stop-opacity:1" />
    <stop
       offset=".7956"
       stop-color="#4ab0fe"
       id="stop3926"
       style="stop-color:#febc4a;stop-opacity:1" />
    <stop
       offset="1"
       stop-color="#4facfe"
       id="stop3928"
       style="stop-color:#fee44f;stop-opacity:1" />
  </linearGradient>
  <path
     d="m 491.24775,227.75676 h -4.91406 L 458.76728,131.27238 C 451.44697,105.65129 427.72431,87.75676 401.07587,87.75676 H 109.41962 c -26.648435,0 -50.371092,17.89453 -57.691404,43.51562 l -27.566407,96.48438 h -4.914062 c -11.046874,0 -19.99999922,8.95312 -19.99999922,20 0,11.04687 8.95312522,20 19.99999922,20 h 4.914062 l 27.566407,96.48437 c 7.320312,25.6211 31.042969,43.51563 57.691404,43.51563 h 291.65625 c 26.64844,0 50.3711,-17.89453 57.69141,-43.51563 l 32.48047,-96.48437 c 11.34466,-43.5025 -38.40062,-20.00804 -44.80117,0.0535 l -26.14024,85.43873 c -2.4414,8.54293 -10.34765,14.50777 -19.23047,14.50777 H 109.41962 c -8.88281,0 -16.789061,-5.96484 -19.230467,-14.50781 L 65.763372,267.75676 H 184.83369 l 15.02734,21.46875 c 3.74219,5.34766 9.85938,8.53125 16.38672,8.53125 h 79 c 6.52734,0 12.64453,-3.18359 16.38672,-8.53125 l 15.02734,-21.46875 h 164.58594 c 11.04687,0 20,-8.95313 20,-20 0,-11.04688 -8.95313,-20 -20,-20 z m -279.61328,8.53125 c -141.59115,114.31249 -70.79557,57.15624 0,0 z"
     id="path3931"
     inkscape:connector-curvature="0"
     style="fill:#000000;fill-opacity:1"
     sodipodi:nodetypes="sccssccsssccssccccssccccssccssscc" />
</svg>
