<svg height="479pt" viewBox="-50 0 479 479.585" width="479pt" xmlns="http://www.w3.org/2000/svg"><path d="m68.292969 479.585938h242c37.5 0 68-30.921876 68-68.414063v-242.375c.015625-4.457031-3.542969-8.109375-8-8.210937h-79v-59.816407c0-55.566406-43.605469-100.769531-97-100.769531s-97 45.199219-97 100.769531v59.816407h-89c-4.460938.101562-8.015625 3.753906-8 8.210937v242.375c0 37.492187 30.503906 68.414063 68 68.414063zm45-378.816407c0-46.742187 36.429687-84.769531 81-84.769531 44.570312 0 81 38.027344 81 84.769531v59.816407h-162zm-97 75.816407h346v234.585937c0 28.671875-23.328125 52.414063-52 52.414063h-242c-28.671875 0-52-23.742188-52-52.414063zm0 0"/><path d="m117.792969 316.59375.339843 98.089844c.074219 4.417968 3.703126 7.949218 8.121094 7.902344h.019532c2.113281.015624 4.144531-.816407 5.644531-2.304688 1.5-1.492188 2.339843-3.519531 2.335937-5.632812l-.4375-97.992188c17.808594-3.71875 30.546875-19.453125 30.476563-37.644531v-54.164063c0-4.421875-3.582031-8-8-8s-8 3.578125-8 8v54.164063c.078125 9.386719-5.726563 17.816406-14.519531 21.097656l-.0625-75.414063c.050781-4.414062-3.476563-8.039062-7.890626-8.109374h-.015624c-4.445313.066406-8.007813 3.703124-7.984376 8.148437l-.070312 75.109375c-8.621094-3.339844-14.34375-11.585938-14.457031-20.832031v-54.164063c0-4.421875-3.582031-8-8-8s-8 3.578125-8 8v54.164063c.128906 18.117187 12.796875 33.726562 30.5 37.582031zm0 0"/><path d="m241.292969 319.089844v95.507812c0 4.417969 3.582031 8 8 8s8-3.582031 8-8v-95.507812c9-2.101563 16.148437-7.484375 22.105469-15.699219 7.246093-9.992187 11.324218-23.144531 11.324218-37.03125s-3.945312-27.039063-11.191406-37.03125c-7.8125-10.765625-18.417969-16.699219-29.90625-16.699219-11.492188 0-22.109375 5.929688-29.917969 16.699219-7.25 9.992187-11.234375 23.144531-11.234375 37.03125s3.816406 27.039063 11.066406 37.03125c5.953126 8.214844 13.753907 13.601563 21.753907 15.699219zm8.351562-90.457032c13.640625 0 25.167969 17.277344 25.167969 37.726563s-11.527344 37.726563-25.167969 37.726563-25.164062-17.277344-25.164062-37.726563c0-20.453125 11.523437-37.726563 25.164062-37.726563zm0 0"/></svg>